<mxfile host="65bd71144e">
    <diagram id="3thlsXLOhWlS8fTt9m0Y" name="Page-1">
        <mxGraphModel dx="729" dy="624" grid="1" gridSize="10" guides="1" tooltips="1" connect="1" arrows="1" fold="1" page="1" pageScale="1" pageWidth="827" pageHeight="1169" math="0" shadow="0">
            <root>
                <mxCell id="0"/>
                <mxCell id="1" parent="0"/>
                <mxCell id="14" value="" style="edgeStyle=none;html=1;fontSize=30;" edge="1" parent="1" source="2" target="13">
                    <mxGeometry relative="1" as="geometry"/>
                </mxCell>
                <mxCell id="16" value="" style="edgeStyle=none;html=1;fontSize=30;" edge="1" parent="1" source="2" target="15">
                    <mxGeometry relative="1" as="geometry"/>
                </mxCell>
                <mxCell id="2" value="X" style="whiteSpace=wrap;html=1;fillColor=#050505;" vertex="1" parent="1">
                    <mxGeometry x="150" y="10" width="140" height="60" as="geometry"/>
                </mxCell>
                <mxCell id="3" value="Y" style="whiteSpace=wrap;html=1;fillColor=#050505;" vertex="1" parent="1">
                    <mxGeometry x="490" y="10" width="140" height="60" as="geometry"/>
                </mxCell>
                <mxCell id="26" style="edgeStyle=none;html=1;exitX=1;exitY=0.5;exitDx=0;exitDy=0;fontSize=18;" edge="1" parent="1" source="8" target="24">
                    <mxGeometry relative="1" as="geometry"/>
                </mxCell>
                <mxCell id="8" value="X_TRAIN_POLY" style="whiteSpace=wrap;html=1;fillColor=#050505;" vertex="1" parent="1">
                    <mxGeometry x="340" y="515" width="120" height="60" as="geometry"/>
                </mxCell>
                <mxCell id="10" value="X_TEST_POLY" style="whiteSpace=wrap;html=1;fillColor=#050505;" vertex="1" parent="1">
                    <mxGeometry x="340" y="410" width="120" height="60" as="geometry"/>
                </mxCell>
                <mxCell id="21" style="edgeStyle=none;html=1;entryX=0.142;entryY=-0.042;entryDx=0;entryDy=0;fontSize=30;entryPerimeter=0;" edge="1" parent="1" source="13" target="23">
                    <mxGeometry relative="1" as="geometry">
                        <mxPoint x="250" y="310" as="targetPoint"/>
                    </mxGeometry>
                </mxCell>
                <mxCell id="13" value="X_TRAIN" style="whiteSpace=wrap;html=1;fillColor=#050505;" vertex="1" parent="1">
                    <mxGeometry x="40" y="110" width="140" height="60" as="geometry"/>
                </mxCell>
                <mxCell id="22" style="edgeStyle=none;html=1;fontSize=30;entryX=0.677;entryY=0.017;entryDx=0;entryDy=0;entryPerimeter=0;" edge="1" parent="1" source="15" target="23">
                    <mxGeometry relative="1" as="geometry">
                        <mxPoint x="304" y="310" as="targetPoint"/>
                    </mxGeometry>
                </mxCell>
                <mxCell id="15" value="X_TEST" style="whiteSpace=wrap;html=1;fillColor=#050505;" vertex="1" parent="1">
                    <mxGeometry x="200" y="110" width="140" height="60" as="geometry"/>
                </mxCell>
                <mxCell id="17" value="" style="edgeStyle=none;html=1;fontSize=30;" edge="1" parent="1" target="19">
                    <mxGeometry relative="1" as="geometry">
                        <mxPoint x="537" y="70" as="sourcePoint"/>
                    </mxGeometry>
                </mxCell>
                <mxCell id="18" value="" style="edgeStyle=none;html=1;fontSize=30;" edge="1" parent="1" target="20">
                    <mxGeometry relative="1" as="geometry">
                        <mxPoint x="585" y="70" as="sourcePoint"/>
                    </mxGeometry>
                </mxCell>
                <mxCell id="19" value="Y_TRAIN" style="whiteSpace=wrap;html=1;fillColor=#050505;" vertex="1" parent="1">
                    <mxGeometry x="391" y="110" width="140" height="60" as="geometry"/>
                </mxCell>
                <mxCell id="25" style="edgeStyle=none;html=1;exitX=0.5;exitY=1;exitDx=0;exitDy=0;entryX=0.568;entryY=0.021;entryDx=0;entryDy=0;entryPerimeter=0;fontSize=18;" edge="1" parent="1" source="19" target="24">
                    <mxGeometry relative="1" as="geometry"/>
                </mxCell>
                <mxCell id="20" value="Y_TEST" style="whiteSpace=wrap;html=1;fillColor=#050505;" vertex="1" parent="1">
                    <mxGeometry x="550" y="110" width="140" height="60" as="geometry"/>
                </mxCell>
                <mxCell id="28" style="edgeStyle=none;html=1;entryX=0;entryY=0.5;entryDx=0;entryDy=0;fontSize=18;" edge="1" parent="1" source="23" target="10">
                    <mxGeometry relative="1" as="geometry"/>
                </mxCell>
                <mxCell id="29" style="edgeStyle=none;html=1;entryX=0;entryY=0.5;entryDx=0;entryDy=0;fontSize=18;" edge="1" parent="1" source="23" target="8">
                    <mxGeometry relative="1" as="geometry"/>
                </mxCell>
                <mxCell id="23" value="&lt;font style=&quot;font-size: 18px&quot;&gt;POLY.FIT_TRANSFORM&lt;/font&gt;" style="shape=hexagon;perimeter=hexagonPerimeter2;whiteSpace=wrap;html=1;fixedSize=1;fontSize=30;fillColor=#050505;" vertex="1" parent="1">
                    <mxGeometry x="120" y="280" width="230" height="100" as="geometry"/>
                </mxCell>
                <mxCell id="24" value="LR" style="shape=hexagon;perimeter=hexagonPerimeter2;whiteSpace=wrap;html=1;fixedSize=1;fontSize=18;fillColor=#050505;" vertex="1" parent="1">
                    <mxGeometry x="570" y="370" width="120" height="80" as="geometry"/>
                </mxCell>
            </root>
        </mxGraphModel>
    </diagram>
</mxfile>